<svg width="98" height="71" viewBox="0 0 98 71" fill="none" xmlns="http://www.w3.org/2000/svg">
<path d="M30.8879 70.536C24.9359 70.536 19.6559 69.16 15.0479 66.408C10.5039 63.592 6.91988 59.56 4.29588 54.312C1.73588 49 0.455875 42.696 0.455875 35.4C0.455875 28.104 1.73588 21.832 4.29588 16.584C6.91988 11.272 10.5039 7.24 15.0479 4.488C19.6559 1.672 24.9359 0.263998 30.8879 0.263998C36.8399 0.263998 42.0879 1.672 46.6319 4.488C51.2399 7.24 54.8239 11.272 57.3839 16.584C60.0079 21.832 61.3199 28.104 61.3199 35.4C61.3199 42.696 60.0079 49 57.3839 54.312C54.8239 59.56 51.2399 63.592 46.6319 66.408C42.0879 69.16 36.8399 70.536 30.8879 70.536ZM30.8879 52.392C36.0079 52.392 38.5679 46.728 38.5679 35.4C38.5679 24.072 36.0079 18.408 30.8879 18.408C25.7679 18.408 23.2079 24.072 23.2079 35.4C23.2079 46.728 25.7679 52.392 30.8879 52.392ZM97.8591 1.8V69H75.2031V18.888H63.6831V1.8H97.8591Z" fill="#EFF5F8"/>
</svg>
