<svg width="121" height="71" viewBox="0 0 121 71" fill="none" xmlns="http://www.w3.org/2000/svg">
<path d="M31.216 70.536C25.264 70.536 19.984 69.16 15.376 66.408C10.832 63.592 7.248 59.56 4.624 54.312C2.064 49 0.784 42.696 0.784 35.4C0.784 28.104 2.064 21.832 4.624 16.584C7.248 11.272 10.832 7.24 15.376 4.488C19.984 1.672 25.264 0.263998 31.216 0.263998C37.168 0.263998 42.416 1.672 46.96 4.488C51.568 7.24 55.152 11.272 57.712 16.584C60.336 21.832 61.648 28.104 61.648 35.4C61.648 42.696 60.336 49 57.712 54.312C55.152 59.56 51.568 63.592 46.96 66.408C42.416 69.16 37.168 70.536 31.216 70.536ZM31.216 52.392C36.336 52.392 38.896 46.728 38.896 35.4C38.896 24.072 36.336 18.408 31.216 18.408C26.096 18.408 23.536 24.072 23.536 35.4C23.536 46.728 26.096 52.392 31.216 52.392ZM120.075 51.432V69H66.2193V55.08L90.5073 32.616C92.6193 30.632 94.0273 28.936 94.7313 27.528C95.4353 26.12 95.7873 24.744 95.7873 23.4C95.7873 21.736 95.2113 20.456 94.0593 19.56C92.9713 18.6 91.3713 18.12 89.2593 18.12C87.2113 18.12 85.2913 18.664 83.4993 19.752C81.7073 20.84 80.3313 22.376 79.3713 24.36L62.2832 15.816C64.8433 11.016 68.5873 7.24 73.5153 4.488C78.4433 1.672 84.3953 0.263998 91.3713 0.263998C96.6833 0.263998 101.387 1.128 105.483 2.856C109.579 4.584 112.779 7.04799 115.083 10.248C117.387 13.448 118.539 17.128 118.539 21.288C118.539 25 117.739 28.488 116.139 31.752C114.603 34.952 111.563 38.6 107.019 42.696L97.4193 51.432H120.075Z" fill="#E1ECF2" fill-opacity="0.5"/>
</svg>
