<svg width="120" height="71" viewBox="0 0 120 71" fill="none" xmlns="http://www.w3.org/2000/svg">
<path d="M30.966 70.4883C25.014 70.4883 19.734 69.1123 15.126 66.3603C10.582 63.5443 6.998 59.5123 4.374 54.2643C1.814 48.9523 0.534 42.6483 0.534 35.3523C0.534 28.0563 1.814 21.7843 4.374 16.5363C6.998 11.2243 10.582 7.19227 15.126 4.44027C19.734 1.62427 25.014 0.216269 30.966 0.216269C36.918 0.216269 42.166 1.62427 46.71 4.44027C51.318 7.19227 54.902 11.2243 57.462 16.5363C60.086 21.7843 61.398 28.0563 61.398 35.3523C61.398 42.6483 60.086 48.9523 57.462 54.2643C54.902 59.5123 51.318 63.5443 46.71 66.3603C42.166 69.1123 36.918 70.4883 30.966 70.4883ZM30.966 52.3443C36.086 52.3443 38.646 46.6803 38.646 35.3523C38.646 24.0243 36.086 18.3603 30.966 18.3603C25.846 18.3603 23.286 24.0243 23.286 35.3523C23.286 46.6803 25.846 52.3443 30.966 52.3443ZM103.793 28.3443C108.977 29.6243 112.945 31.9603 115.697 35.3523C118.513 38.6803 119.921 42.7123 119.921 47.4483C119.921 51.4803 118.801 55.2563 116.561 58.7763C114.385 62.2323 110.993 65.0483 106.385 67.2243C101.777 69.4003 96.0493 70.4883 89.2013 70.4883C84.4653 70.4883 79.7293 69.9763 74.9933 68.9523C70.3213 67.9283 66.2253 66.4243 62.7052 64.4403L70.3853 47.7363C73.1373 49.3363 76.0813 50.5523 79.2173 51.3843C82.4173 52.2163 85.4893 52.6323 88.4333 52.6323C91.0573 52.6323 93.1693 52.1843 94.7693 51.2883C96.3693 50.3923 97.1693 49.1123 97.1693 47.4483C97.1693 44.3763 94.5133 42.8403 89.2013 42.8403H80.2733V28.9203L90.1613 18.8403H66.1613V1.75227H116.273V15.6723L103.793 28.3443Z" fill="#EFF5F8"/>
</svg>
